<svg xmlns="http://www.w3.org/2000/svg" version="1.1" width="600px" height="600px" viewBox="0 0 200 200" style="overflow:hidden!important;"><g id="svga-group-wrapper"><g id="svga-group-backs-single"></g><g id="svga-group-humanwrap-move" transform="matrix(1,0,0,1,0,0)"><g id="svga-group-humanwrap"><g id="svga-group-hair-back-move" transform="matrix(1,-2.856368900253737e-18,2.856368900253737e-18,1,0,0)"><g id="svga-group-hair-back" transform="matrix(0.9799998000000001,0,0,0.9998998000000001,0,0)"></g></g><g id="svga-group-humanbody-back"><path id="SvgjsPath18567" d="m170 180.3-27.3-6.9-18-9.9-1.5-28.2H76.8l-1.5 28.2-18 9.9-27.3 6.9-9.1 19.7-3 20h164.2l-3-20z" fill="#f6f1e2" stroke-width="none" opacity="1" stroke="none"></path><path id="SvgjsPath18568" d="m76.8 135.3-1.5 28.2-18 9.9-27.3 6.9-9.1 19.7-3 20h14.6v-20l2.7-17.7 23.8-6.4 24.7-8.3 3.5-32.3z" fill="#d7c89b" stroke-width="none" opacity="1" stroke="none"></path></g><g id="svga-group-chinshadow-single"><path id="SvgjsPath18563" d="m110 156.9 2.4-3.4 11.4-7.5-.6-10.7H76.8l-.7 14.3 5.9 3.9 2.4 3.4 5.4 2.7h14.8z" fill="#c8b57c" stroke-width="none" opacity="1" stroke="none"></path></g><g id="svga-group-humanbody-front"><path id="SvgjsPath18569" d="m92.8 168.3 2 7.9 6.9 4.6s-8.5-3-8.7-3.6c-.2-.6-.2-8.9-.2-8.9z" fill="#d7c89b" stroke-width="none" opacity="1" stroke="none"></path></g><g id="svga-group-clothes-single"><path id="SvgjsPath18446" d="m179.6 200-8.5-20-28.8-7.4-9.5-4.8-.1-1.5-8.3-8.8.2 3.5-1.1 12.2-7.6 7.9-9.1 1.9-2.1 5.7-2.1 2.9-7.5-9.3-10.7-1.2-5.8-7.3-3.2-13.1.2-3.2-8.3 8.8-.1 1.5-9.5 4.8L29 180l-8.6 20-3.4 20h165.9z" fill="#82cbe2" stroke-width="none" opacity="1"></path><path id="SvgjsPath18447" d="m29.9 200.7 3.6-10.8 24.9-9.6 7.2-3.2.3-2 11.5-5.7h.1l-2.1-8.7.2-3.2-8.3 8.8-.1 1.5-9.5 4.8L29 180l-8.6 20-3.4 20h12.6z" fill="#64b8d3" stroke-width="none" opacity="1"></path><path id="SvgjsPath18448" d="m132.8 167.8 2.7 19.2 1.2 8.7L125 188l-5.2-5.3-4.2-1.6 4 3.4-6.4 2.6-7.9 1.5 7-.6-8.7 11.8V220h1.7l-.8-19.8 7.8-12 1-.1 7.1-2.8 4.2 4.5 13.3 8.1-1.6-12.4-3.5-17.7zm-33.1 29.7 2.9-5.9-3.5 5-6.1-8.7-12.5-3.4 3.8-3.3-4.2 1.6L75 188l-11.7 7.7 1.2-8.7 2.7-19.2-3.4 17.7-1.6 12.4 13.3-8.1 4.6-4.9.5-.5 11.8 4.3 6.1 8.6-1.2.7 1.1 21.9h1.5l-1.3-21 1.1-1.4zm10.5-12.8-1.5-.8-.9 1.4 1.4 1 1-1.6zm-9.3 13.3 1.4 1 1-1.7-1.5-.8-.9 1.5zm-.8 18.6 1.4 1 1-1.7-1.5-.8-.9 1.5zm-69.7-35.3 6.8 21 1.2 17.7h1.4l-1.1-17.8-8.3-20.9zm130.5 19.3-1.2 19.4h1.9l1-19.2 7-18.2-8.7 18z" fill="#49a6c3" stroke-width="none" opacity="1"></path><path id="SvgjsPath18449" d="m127 162.5-1.1-1.4v13l-5.3 8 4.8 4.6s2.3-11.1 2.3-11.8c0-.7-.7-12.4-.7-12.4zm-53.2.1.5-2.3-1.8 2.5 1.2 13.4 2.1 9.5 3.8-4.3-3.9-6.1-1.9-12.7z" fill="#a3dff1" stroke-width="none" opacity="1"></path></g><g id="svga-group-head" transform="matrix(1,-2.856368900253737e-18,2.856368900253737e-18,1,0,0)"><g id="svga-group-ears-left-move" transform="matrix(1,0,0,1,1.5,0)"><g id="svga-group-ears-left"><path id="SvgjsPath18461" d="m66.3 102.2-3-7.2-9.2-8-3.6 12.9 4.7 12.7-.4 5.6 5 2.4 6-11.1z" fill="#f6f1e2" stroke-width="none" opacity="1" stroke="none"></path><path id="SvgjsPath18462" d="m52.5 100 1.9-8.4 3.7 10.6-.8 1 .4 5.9s-3.3-2.1-3.3-2.7.3-6.2.3-6.2l.9-.3-.9-4.5-1.6 6.1.4 3-1-4.5z" fill="#d7c89b" stroke-width="none" opacity="1" stroke="none"></path><path id="SvgjsPath18463" d="m60.4 111.8-.7-12L54.1 87l9.2 8 3 7.2-.5 7.3-6 11.1-5-2.4 4.8.3z" fill="#e7dcbd" stroke-width="none" opacity="1" stroke="none"></path></g></g><g id="svga-group-ears-right-move" transform="matrix(1,0,0,1,-1.5,0)"><g id="svga-group-ears-right"><path id="SvgjsPath18464" d="m133.7 102.2 3-7.2 9.2-8 3.6 12.9-4.7 12.7.4 5.6-5 2.4-6-11.1z" fill="#f6f1e2" stroke-width="none" opacity="1" stroke="none"></path><path id="SvgjsPath18465" d="m147.5 100-1.9-8.4-3.7 10.6.8 1-.4 5.9s3.3-2.1 3.3-2.7-.3-6.2-.3-6.2l-.9-.3.9-4.5 1.6 6.1-.4 3 1-4.5z" fill="#d7c89b" stroke-width="none" opacity="1" stroke="none"></path><path id="SvgjsPath18466" d="m139.6 111.8.7-12 5.6-12.8-9.2 8-3 7.2.5 7.3 6 11.1 5-2.4-4.8.3z" fill="#e7dcbd" stroke-width="none" opacity="1" stroke="none"></path></g></g><g id="svga-group-faceshape-wrap" transform="matrix(0.9799998000000001,0,0,0.9998998000000001,2.000019999999992,0.009624209159071029)"><g id="svga-group-faceshape-single"><path id="SvgjsPath18549" d="M143.4 84.8c-.2-10.2-5.3-24.8-5.3-24.8-6.9-11.6-19.7-19.5-19.7-19.5-7.2-1.5-18.4-2.3-18.4-2.3s-11.1.8-18.4 2.3c0 0-12.8 7.9-19.7 19.5 0 0-5.1 14.5-5.3 24.8l2.1 35.8 5 13.4 21.2 13.8 2.4 3.4 5.3 2.7h14.8l5.3-2.7 2.4-3.4 21.2-13.8 5-13.4 2.1-35.8z" fill="#f6f1e2" stroke-width="none" opacity="1" stroke="none"></path><path id="SvgjsPath18550" d="M106.7 152.5H91.9l-2-4.6-22.8-15.7-2.8-15.4-3.1-32.7 5.1-22.2 16.5-18.8 17.1-2.8 18.5.2c-7.2-1.5-18.4-2.3-18.4-2.3s-11.1.8-18.4 2.3c0 0-12.8 7.9-19.7 19.5 0 0-5.1 14.5-5.3 24.8l2.1 35.8 5 13.4 21.2 13.8 2.4 3.4 5.3 2.7h14.8l5.3-2.7 2.4-3.4 21.2-13.8-24.5 12.7-5.1 5.8z" fill="#d7c89b" stroke-width="none" opacity="1" stroke="none"></path></g></g><g id="svga-group-mouth-single-move" transform="matrix(1,0,0,1,-0.5,-2)"><g id="svga-group-mouth-single" transform="matrix(1.0500002000000002,0,0,1.0500002000000002,-5.000020000000021,-6.655026925177026)"><path id="SvgjsPath18830" d="m111.71 128.99-5.84-1.83-3.28-.34h-5.18l-3.28.34-5.68 1.83-2.35 1 1.57 2.22 7.2 3.17h10.26l7.2-3.17 1.57-2.22z" fill="#da7c87" stroke-width="none" opacity="1" transform="translate(0 2)"></path><path id="SvgjsPath18831" d="m83.15 129.56 6.2 1.7h19.9l7.6-2.1-8.3 1.1h-19.3z" fill="#cb5f6c" stroke-width="none" opacity="1" transform="translate(0 2)"></path></g></g><g id="svga-group-eyes-left-move" transform="matrix(1,0,0,1,2,0)"><g id="svga-group-eyes-left" transform="matrix(0.8999996000000001,0,0,0.8999996000000001,7.995031674822982,9.525038481471242)"><g id="svga-group-eyesback-left"><path id="SvgjsPath18505" d="m90.4 96.7-4.6-5.3-7.8.4s-3.5 3.9-5.8 7.2c0 0 4.8 2.7 6 3.4h5l7.2-5.7z" fill="#ffffff" stroke-width="none" opacity="1"></path></g><g id="svga-group-eyesiriswrapper-left" transform="matrix(1,0,0,1,0,0)"><g id="svga-group-eyesiriscontrol-left" transform="matrix(1,0,0,1,0,0)"><g id="svga-group-eyesiris-left"><path id="SvgjsPath18584" d="m77.2 97.7-.8-5 3.8-3.3 4.8 1.8.9 5-3.9 3.2z" fill="#7b5c33" stroke-width="none" opacity="1"></path><path id="SvgjsPath18585" d="m80.3 89.9 4.3 1.6.8 4.5-3.5 2.9-4.3-1.6-.8-4.5 3.5-2.9m-.1-1-4.3 3.6.9 5.5 5.2 1.9 4.3-3.6-.9-5.5-5.2-1.9z" fill="#73542a" stroke-width="none" opacity="1"></path><path id="SvgjsPath18586" d="m80.2 89.2 4.9 1.8.9 5.2-4 3.4-4.9-1.8-.9-5.2 4-3.4m-.1-.5-4.5 3.8 1 5.8 5.5 2 4.5-3.8-1-5.8-5.5-2z" fill="#5c3d14" stroke-width="none" opacity="1"></path><path id="SvgjsPath18587" d="m78.1 95.4.7-3.1 3-1 2.3 2.2-.6 3-3 1z" fill="#000000" stroke-width="none" opacity="1"></path><path id="SvgjsPath18588" d="M79.1 91.9h1.8v1.8h-1.8v-1.8z" fill="#ffffff" stroke-width="none" opacity="1"></path><path id="SvgjsPath18589" d="M81.5 96.3h1v1h-1v-1z" fill="#ffffff" stroke-width="none" opacity="1"></path></g></g></g><g id="svga-group-eyesfront-left"><path id="SvgjsPath18513" d="M67.1 89.3v11.9l7.9 8.4h11.2l7.9-8.4V89.3l-7.9-8.4H75l-7.9 8.4zm5 9.7c2.3-3.3 5.8-7.2 5.8-7.2l7.8-.4 4.6 5.3-7.2 5.7h-5c-1.2-.6-6-3.4-6-3.4z" fill="#f6f1e2" stroke-width="none" opacity="1" stroke="none"></path><path id="SvgjsPath18514" d="m78.2 92.2 7.4-.4 5.2 5.8-.5-2.4-5.3-7.9-11.2.5-5 12.3-3 .9 4.8-.6 2.1-1.5z" fill="#e7dcbd" stroke-width="none" opacity="1" stroke="none"></path><path id="SvgjsPath18515" d="m85.9 91.3-8.1.4-7.2 8.7 2.1-1.5 5.5-6.7 7.4-.4 5.2 5.8z" fill="#000000" stroke-width="none" opacity="1" stroke="none"></path></g></g></g><g id="svga-group-eyes-right-move" transform="matrix(1,0,0,1,-2,0)"><g id="svga-group-eyes-right" transform="matrix(0.8999996000000001,0,0,0.8999996000000001,12.005048706648239,9.515038594059746)"><g id="svga-group-eyesback-right"><path id="SvgjsPath18506" d="m109.6 96.7 4.6-5.3 7.8.4s3.5 3.9 5.8 7.2c0 0-4.8 2.7-6 3.4h-5l-7.2-5.7z" fill="#ffffff" stroke-width="none" opacity="1"></path></g><g id="svga-group-eyesiriswrapper-right" transform="matrix(1,0,0,1,0,0)"><g id="svga-group-eyesiriscontrol-right" transform="matrix(1,0,0,1,0,0)"><g id="svga-group-eyesiris-right"><path id="SvgjsPath18590" d="m115 97.7-.9-5 3.9-3.3 4.8 1.8.8 5-3.8 3.2z" fill="#7b5c33" stroke-width="none" opacity="1"></path><path id="SvgjsPath18591" d="m118.1 89.9 4.3 1.6.8 4.5-3.5 2.9-4.3-1.6-.8-4.5 3.5-2.9m-.2-1-4.3 3.6.9 5.5 5.2 1.9 4.3-3.6-.9-5.5-5.2-1.9z" fill="#73542a" stroke-width="none" opacity="1"></path><path id="SvgjsPath18592" d="m118 89.2 4.9 1.8.9 5.2-4 3.4-4.9-1.8-.9-5.2 4-3.4m-.1-.5-4.5 3.8 1 5.8 5.5 2 4.5-3.8-1-5.8-5.5-2z" fill="#4d3009" stroke-width="none" opacity="1"></path><path id="SvgjsPath18593" d="m115.9 95.4.6-3.1 3-1 2.4 2.2-.7 3-3 1z" fill="#000000" stroke-width="none" opacity="1"></path><path id="SvgjsPath18594" d="M116.9 91.9h1.8v1.8h-1.8v-1.8z" fill="#ffffff" stroke-width="none" opacity="1"></path><path id="SvgjsPath18595" d="M119.2 96.3h1v1h-1v-1z" fill="#ffffff" stroke-width="none" opacity="1"></path></g></g></g><g id="svga-group-eyesfront-right"><path id="SvgjsPath18516" d="M125 80.8h-11.2l-7.9 8.4v11.9l7.9 8.4H125l7.9-8.4V89.3l-7.9-8.5zm-3.1 21.6h-5l-7.2-5.7 4.6-5.3 7.8.4s3.5 3.9 5.8 7.2c0 0-4.8 2.8-6 3.4z" fill="#f6f1e2" stroke-width="none" opacity="1" stroke="none"></path><path id="SvgjsPath18519" d="m121.8 92.2-7.4-.4-5.2 5.8.5-2.4 5.3-7.9 11.2.5 5 12.3 3 .9-4.8-.6-2.1-1.5z" fill="#e7dcbd" stroke-width="none" opacity="1" stroke="none"></path><path id="SvgjsPath18520" d="m114.1 91.3 8.1.4 7.2 8.7-2.1-1.5-5.5-6.7-7.4-.4-5.2 5.8z" fill="#000000" stroke-width="none" opacity="1" stroke="none"></path></g></g></g><g id="svga-group-facehighlight-single"></g><g id="svga-group-eyebrows-left-move" transform="matrix(1,0,0,1,1,0)"><g id="svga-group-eyebrows-left-rotate" transform="matrix(0.9914448490720023,0.1305262856615279,-0.1305262856615279,0.9914448490720023,11.670447851060118,-9.656495995427008)"><g id="svga-group-eyebrows-left" transform="matrix(0.8999996000000001,0,0,0.8999996000000001,7.950031799999991,8.420033756294245)"><path id="SvgjsPath18424" d="M92.8 80.6 91.1 86l-2.4 1-14.1-2.3-3.3 1.1-5.1 3.3s3.4-5.3 3.5-5.7c.1-.3 2.5-4.1 2.5-4.1l11.6.6 9 .7z" fill="#deb183" stroke-width="none" opacity="1"></path><path id="SvgjsPath18425" d="m77.5 85.3-.4-.1-1.2-2.9-3.8-2.8 1.8.5 3.1 1.8c.1 0 .3 2.1.5 3.5zm2.9.4h-.2c.1-.9.1-2.4.1-2.6 0-.2.6-1.5 1.1-2.6l.3.1c-.4 1.6-.9 3.9-1.3 5.1zm4.6.8 5.6-5.6h.6c-.8 1.4-2 3.3-2.2 3.5-.2.1-1.8 1.2-3.3 2.2l-.7-.1zm.1-5.6h.2l-1.5 3.6-1.3 1.6-.4-.1 3-5.1zm-16.1 4c1.4-.5 2.6-1 2.8-1 .2-.1 1.3.5 2.2 1.1l-.8.3c-.6-.1-1-.2-1.1-.3-.1 0-1.8.3-3.5.7.1-.3.3-.5.4-.8z" fill="#cf9b65" stroke-width="none" opacity="1"></path></g></g></g><g id="svga-group-eyebrows-right-move" transform="matrix(1,0,0,1,-1,0)"><g id="svga-group-eyebrows-right-rotate" transform="matrix(0.9914448613738104,-0.13052619222005174,0.13052619222005174,0.9914448613738104,-9.972035917071395,16.456131050122295)"><g id="svga-group-eyebrows-right" transform="matrix(0.8999996000000001,0,0,0.8999996000000001,12.055048525176986,8.430033643705741)"><path id="SvgjsPath18426" d="m107.2 80.6 1.8 5.5 2.4 1 14.1-2.3 3.3 1.1 5.1 3.3s-3.4-5.3-3.5-5.7c-.1-.3-2.5-4.1-2.5-4.1l-11.6.6-9.1.6z" fill="#deb183" stroke-width="none" opacity="1"></path><path id="SvgjsPath18427" d="m122.5 85.3.4-.1 1.2-2.9 3.8-2.8-1.8.5-3.1 1.8c-.1 0-.3 2.1-.5 3.5zm-2.9.4h.2c-.1-.9-.1-2.4-.1-2.6 0-.2-.6-1.5-1.1-2.6l-.3.1c.4 1.6.9 3.9 1.3 5.1zm-4.6.8-5.6-5.6h-.6c.8 1.4 2 3.3 2.2 3.5.2.1 1.8 1.2 3.3 2.2l.7-.1zm-.1-5.6h-.2l1.5 3.6 1.3 1.6.4-.1-3-5.1zm16.1 4c-1.4-.5-2.6-1-2.8-1-.2-.1-1.3.5-2.2 1.1l.8.3c.6-.1 1-.2 1.1-.3.1 0 1.8.3 3.5.7-.1-.3-.3-.5-.4-.8z" fill="#cf9b65" stroke-width="none" opacity="1"></path></g></g></g><g id="svga-group-beardwrap" transform="matrix(0.9799998000000001,0,0,0.9998998000000001,1.9800197237052828,0.013807559159062066)"><g id="svga-group-beard-single-move" transform="matrix(1,0,0,1,-1,3)"><g id="svga-group-beard-single" transform="matrix(0.8499994000000002,0,0,0.8499994000000002,15.000059427793104,20.220079621144848)"><path id="SvgjsPath18414" d="m141.4 107.5-4.1-3.5-2.7 5.4-4.4 16.8-22.3 22.5-2.1-.6.6-5.3-6.6 1.1-6.2-1.1.6 5.3-2.1.6-22.3-22.5-4.4-16.8-2.8-5.9-3.8 4.3-4.9 22.6 37 35.7h18.2l37-35.7z" fill="#543c32" stroke-width="none" opacity="1"></path><path id="SvgjsPath18415" d="m94.2 148.1-2 .6 3.3 11.3-1.3-11.9zm11.6 0-1.3 11.9 3.3-11.3-2-.6zm35.6-40.6-.8 25.6-8.1 6.9-1.2-.8-4.8 4.8 3.6-17.8-5.9 5.9 1.7 12.4-17.9 18.1-16 .4-8.2-10.1-2-14.7-4.2-4.2 5.6 18.1-6.3-7.7-.9-12-6.2-6.2 6 16.9-3.8-4.7-1.8 1.4-7.6-14.3-2.2 2.8-1.7-20.6-4.8 22.6L90.8 166H109l36.9-35.7-4.5-22.8zm-24.3 31.9-.2 14.3 6-20.2-5.8 5.9zm-5 5-4 18.2 7.8-22-3.8 3.8zm-28.7-4.5L92 163l-3.8-18.3-4.8-4.8z" fill="#452c22" stroke-width="none" opacity="1"></path></g></g></g><g id="svga-group-mustache-single-move" transform="matrix(1,0,0,1,0,-2)"><g id="svga-group-mustache-single" transform="matrix(0.7999992000000002,0,0,0.7999992000000002,20.07008073776548,25.31010413918149)"><path id="SvgjsPath18672" d="m102.3 118.9 9.8 1.7 9.1 6.7 4.2 7.1-5.9-2.9-1.7-3.2.9 2.9-4.4-1.2-.9-1.5.2 1.3-5.5-1.2-.9-1.8.2 1.6-1.5-2.5.4 2.4-3-.6-1.6-3.1.3 2.9-.8-1.5-.2 1.7-1.1-3.1v3l-3.2.1.6-2.8-1.2 2.9-4.4 1v-1.6l-.9 1.8-6.8 1.6 1.6-3.1-2.8 3.4-3.9 1.2 1-2.9-2.3 3.2-2.3 1.2 4-7.8 10.1-6 8.9-1.1z" fill="#543c32" stroke-width="none" opacity="1"></path><path id="SvgjsPath18673" d="m92.2 128.2 1.9-8s-1.2 2.4-1.2 2.7-.7 5.3-.7 5.3zm-4.1 1.2 4-9.4-2.7 3.9-1.3 5.5zm-3.6-3.9-2.2 5.2 3.2-5.5 3.5-4.5c-.2.1-4.5 4.8-4.5 4.8zm-3.7 3c-.1.3-1.2 2.8-1.2 2.8l1.9-3.1 2-4s-2.7 4-2.7 4.3zm-2.3.1-1.7 3.6 3.5-6.4-1.8 2.8zm46.9 5.8-4.2-7.1-9.2-6.7-4.3-.8-1.2.4.1 2.1s-1.7-2.2-2.1-2.2c-.4-.1-3.8-.5-4-.5s-.5 2.3-.5 2.5-1.1-1.8-1.1-1.8-2-.2-3.9-.5l3.2 1.1.2 6 .5-6.1 1.8 4.8-.1-5 3.8 6.7-2.4-6.7 3.4 6.5-1.9-6.8 2 1.2 3.9 6.7-2.4-6.1 3.3 1.1 2.7 6.3-1.4-5.6 3.4 5.8-2.7-7.7 3.8 2.9 2 6-1.2-5.6 3.9 2.7 4.6 6.4z" fill="#4c342a" stroke-width="none" opacity="1"></path></g></g><g id="svga-group-nose-single-move" transform="matrix(1,0,0,1,0,0)"><g id="svga-group-nose-single"><path id="SvgjsPath18640" d="m109.3 114.7-3.65.67-3.68 3.41-3.81.04-3.78-3.51-3.34-.91 3.07-7.49 2.84-1.59h5.7l3.29 1.54z" fill="#f6f1e2" stroke-width="none" opacity="1" transform="translate(0 1)" stroke="none"></path><path id="SvgjsPath18641" d="m105.94 106.86 2.82 7.4-1.9.63V114l-4.93 4.49h-3.55L93.45 114v.89l-1.9-.63 4.17-11.37-5.43 12.25 4.67.88 3.16 3.04h4.07l3.16-3.04 4.67-.88z" fill="#d7c89b" stroke-width="none" opacity="1" transform="translate(0 1)" stroke="none"></path><path id="SvgjsPath18642" d="M97.07 106.09s-.41 1.71-.28 1.63c.12-.08 6.75.2 6.75.2l-6.47-1.83z" fill="#d7c89b" stroke-width="none" opacity="1" transform="translate(0 1)" stroke="none"></path><path id="SvgjsPath18643" d="m98.33 108.94 5.37.12 1.95 3.62-4.88 3.66-.97.08z" fill="#fefcf6" stroke-width="none" opacity="1" transform="translate(0 1)" stroke="none"></path></g></g><g id="svga-group-hair-front" transform="matrix(0.9799998000000001,0,0,0.9998998000000001,2.000119946067798,0.006444863969420567)"><path id="SvgjsPath18684" d="M143.01 63.98c-2.54-5.83-19.15-23.84-19.15-23.84L100 36.33l-23.86 3.8s-16.61 18-19.15 23.84l-.93 24.3 4.58 4.03h2.56l.73-24.9 17.21-16.84 7.32 8.24L100 60.55l11.54-1.75 7.32-8.24 17.21 16.84.73 24.9h2.56l4.58-4.03-.93-24.29z" fill="#452c22" stroke-width="none" opacity="1" stroke="none"></path><path id="SvgjsPath18685" d="M123.86 40.14 100 36.33l-9.09 1.45-11.22 4.57s8.72 13.88 9.72 13.88c.99 0 12.49 1.78 13.48 1.59.99-.2 8.33-.99 8.33-.99l8.33-7.53 18.04 18.24.92 24.77h.86l4.58-4.03-.93-24.3c-2.55-5.84-19.16-23.84-19.16-23.84z" fill="#543c32" stroke-width="none" opacity="1" stroke="none"></path></g><g id="svga-group-glasses-single-move" transform="matrix(1,0,0,1,0,0)"><g id="svga-group-glasses-single"></g></g></g></g></g><rect id="svga-credit-rect" width="200" height="15" x="0" y="185" fill="#ecf0f1" opacity="0.5" style="display: none;"></rect><text id="svga-credit-text" font-family="Avenir Next, Roboto, Helvetica, Arial, sans-serif" font-size="10px" text-anchor="start" font-weight="400" size="10px" anchor="start" weight="400" fill="#333333" x="33.40447998046875" y="182.60824704170227" style="display: none;"><tspan id="SvgjsTspan18413" dy="13" x="33.40447998046875">Created on AvatarMaker.com</tspan></text></g><defs id="SvgjsDefs18360"></defs></svg>